<svg width="116" height="116" viewBox="0 0 116 116" fill="none" xmlns="http://www.w3.org/2000/svg">
<g clip-path="url(#clip0_176_151)">
<path d="M116 76.4087C116 79.9672 113.115 82.852 109.557 82.852H6.44329C2.88475 82.852 0 79.9672 0 76.4087V39.5912C0 36.0327 2.88475 33.1479 6.44329 33.1479H109.557C113.115 33.1479 116 36.0327 116 39.5912V76.4087Z" fill="#092E20"/>
<path d="M20.0076 40.9534H25.501V66.3804C22.6829 66.9155 20.6139 67.1295 18.3668 67.1295C11.6608 67.1295 8.16504 64.0979 8.16504 58.2831C8.16504 52.6829 11.875 49.0445 17.6178 49.0445C18.5095 49.0445 19.1872 49.1161 20.0078 49.3297L20.0076 40.9534ZM20.0076 53.7525C19.3656 53.5387 18.8305 53.4674 18.1528 53.4674C15.3705 53.4674 13.7652 55.1797 13.7652 58.1756C13.7652 61.1011 15.2991 62.7062 18.1172 62.7062C18.7233 62.7062 19.2229 62.6705 20.0076 62.5639V53.7525Z" fill="white"/>
<path d="M34.2398 49.4364V62.1713C34.2398 66.5585 33.9188 68.6629 32.9558 70.4825C32.0638 72.2304 30.8866 73.3357 28.4611 74.5487L23.3601 72.123C25.7858 70.9816 26.9628 69.9836 27.7119 68.4489C28.4968 66.8798 28.7467 65.06 28.7467 60.2802V49.4364H34.2398ZM28.7467 40.9825H34.2398V46.6188H28.7467V40.9825Z" fill="white"/>
<path d="M37.558 50.685C39.9839 49.5434 42.3023 49.0443 44.835 49.0443C47.653 49.0443 49.5078 49.7933 50.3284 51.256C50.7918 52.0761 50.9345 53.1462 50.9345 55.4296V66.5942C48.4729 66.9514 45.3698 67.2008 43.087 67.2008C38.4856 67.2008 36.4164 65.5953 36.4164 62.0287C36.4164 58.1756 39.1631 56.3924 45.9051 55.8213V54.6083C45.9051 53.6098 45.4057 53.2534 44.0144 53.2534C41.9813 53.2534 39.6983 53.8239 37.5578 54.9298V50.685H37.558ZM46.1547 59.4245C42.5161 59.7816 41.3391 60.3521 41.3391 61.7788C41.3391 62.8488 42.017 63.3484 43.515 63.3484C44.3356 63.3484 45.0845 63.2769 46.1547 63.099V59.4245Z" fill="white"/>
<path d="M53.6101 50.2929C56.8559 49.4364 59.5313 49.0443 62.2423 49.0443C65.0603 49.0443 67.0936 49.6859 68.3068 50.935C69.4482 52.1115 69.8046 53.3956 69.8046 56.143V66.9155H64.3115V56.3568C64.3115 54.2523 63.5981 53.4672 61.6364 53.4672C60.8873 53.4672 60.2096 53.5387 59.1035 53.8598V66.9152H53.6103L53.6101 50.2929Z" fill="white"/>
<path d="M71.9401 69.9118C73.8666 70.9103 75.7927 71.374 77.8258 71.374C81.4283 71.374 82.9623 69.9118 82.9623 66.4159C82.9623 66.3804 82.9623 66.3445 82.9623 66.3084C81.8922 66.8437 80.8219 67.0579 79.3954 67.0579C74.5798 67.0579 71.5116 63.883 71.5116 58.8537C71.5116 52.6111 76.0422 49.08 84.0677 49.08C86.4223 49.08 88.5983 49.3294 91.238 49.864L89.357 53.8271C87.8944 53.5415 89.2399 53.7886 88.1346 53.6816V54.2523L88.2057 56.5705L88.2412 59.5671C88.2768 60.3157 88.2768 61.0652 88.3127 61.814C88.3127 62.4917 88.3127 62.8131 88.3127 63.3125C88.3127 68.0212 87.9204 70.2328 86.7433 72.0517C85.031 74.7273 82.0703 76.047 77.8612 76.047C75.7209 76.047 73.8664 75.7257 71.9399 74.9767L71.9401 69.9118ZM82.8555 53.503C82.7841 53.503 82.713 53.503 82.6774 53.503H82.2848C81.215 53.4674 79.9666 53.7525 79.1101 54.2875C77.7906 55.037 77.1124 56.3922 77.1124 58.3187C77.1124 61.0656 78.4683 62.6348 80.8937 62.6348C81.6428 62.6348 82.2493 62.4921 82.9625 62.2781V61.8858V60.3877C82.9625 59.7457 82.927 59.0319 82.927 58.2831L82.8916 55.7504L82.8557 53.9313V53.503H82.8555Z" fill="white"/>
<path d="M99.7659 48.9731C105.259 48.9731 108.612 52.4334 108.612 58.0331C108.612 63.7762 105.117 67.3789 99.5519 67.3789C94.0583 67.3789 90.6696 63.9188 90.6696 58.3546C90.6698 52.5754 94.1657 48.9731 99.7659 48.9731ZM99.6584 62.9558C101.763 62.9558 103.012 61.2078 103.012 58.1756C103.012 55.1796 101.799 53.3958 99.6948 53.3958C97.5185 53.3958 96.2697 55.1442 96.2697 58.1756C96.2699 61.208 97.5185 62.9558 99.6584 62.9558Z" fill="white"/>
</g>
<defs>
<clipPath id="clip0_176_151">
<rect width="116" height="49.704" fill="white" transform="translate(0 33.1479)"/>
</clipPath>
</defs>
</svg>
