<svg width="116" height="116" viewBox="0 0 116 116" fill="none" xmlns="http://www.w3.org/2000/svg">
<path d="M8.75411 49.4532C8.5282 49.4532 8.47172 49.3403 8.58468 49.1708L9.77073 47.6459C9.88368 47.4765 10.1661 47.3635 10.392 47.3635H30.5548C30.7807 47.3635 30.8372 47.533 30.7243 47.7024L29.7641 49.1708C29.6512 49.3403 29.3688 49.5097 29.1993 49.5097L8.75411 49.4532Z" fill="#5DC9E1"/>
<path d="M0.225915 54.6493C4.71294e-07 54.6493 -0.0564787 54.5363 0.0564784 54.3669L1.24253 52.842C1.35549 52.6725 1.63788 52.5596 1.86379 52.5596H27.618C27.8439 52.5596 27.9569 52.729 27.9004 52.8984L27.4486 54.2539C27.3921 54.4798 27.1662 54.5928 26.9403 54.5928L0.225915 54.6493Z" fill="#5DC9E1"/>
<path d="M13.8938 59.8453C13.6678 59.8453 13.6114 59.6759 13.7243 59.5064L14.515 58.0945C14.628 57.925 14.8539 57.7556 15.0798 57.7556H26.3755C26.6014 57.7556 26.7144 57.925 26.7144 58.151L26.6014 59.5064C26.6014 59.7324 26.3755 59.9018 26.2061 59.9018L13.8938 59.8453Z" fill="#5DC9E1"/>
<path d="M72.5184 48.4366C68.9603 49.3403 66.5317 50.018 63.03 50.9217C62.1828 51.1476 62.1263 51.2041 61.3921 50.3569C60.5449 49.3967 59.9237 48.7755 58.7376 48.2107C55.1795 46.4599 51.7343 46.9682 48.515 49.0579C44.6745 51.5429 42.6977 55.214 42.7542 59.7888C42.8107 64.3071 45.917 68.0347 50.3788 68.6559C54.2193 69.1642 57.4386 67.8087 59.9802 64.9283C60.4885 64.3071 60.9403 63.6293 61.5051 62.8386C59.4719 62.8386 56.9303 62.8386 50.6047 62.8386C49.4187 62.8386 49.1363 62.1044 49.5316 61.1443C50.2659 59.3934 51.6213 56.4566 52.412 54.9881C52.5815 54.6492 52.9768 54.0845 53.824 54.0845C56.7044 54.0845 67.3224 54.0845 74.3822 54.0845C74.2692 55.6094 74.2692 57.1343 74.0433 58.6592C73.4221 62.7257 71.8971 66.4533 69.4121 69.729C65.3456 75.0945 60.0366 78.4267 53.3157 79.3304C47.7808 80.0646 42.6412 78.9915 38.123 75.6028C33.9436 72.44 31.5715 68.2606 30.9502 63.0645C30.216 56.9084 32.0233 51.3735 35.7509 46.5163C39.7608 41.2638 45.0698 37.9316 51.5649 36.7455C56.8738 35.7854 61.9569 36.4067 66.5317 39.513C69.525 41.4897 71.6712 44.2007 73.0832 47.4765C73.4221 47.9848 73.1961 48.2672 72.5184 48.4366Z" fill="#5DC9E1"/>
<path d="M91.2129 79.6692C86.0733 79.5562 81.3856 78.0878 77.4321 74.6991C74.0999 71.8187 72.0102 68.1476 71.3324 63.7987C70.3158 57.4167 72.0666 51.7688 75.9072 46.7422C80.0301 41.3203 85.0002 38.4963 91.7212 37.3103C97.482 36.2937 102.904 36.8585 107.818 40.1907C112.279 43.2405 115.047 47.3635 115.781 52.7854C116.741 60.41 114.538 66.6227 109.286 71.9316C105.558 75.7157 100.984 78.0878 95.7311 79.1609C94.2062 79.4433 92.6813 79.4998 91.2129 79.6692ZM104.655 56.8519C104.598 56.1176 104.598 55.5529 104.485 54.9881C103.469 49.3967 98.3292 46.2339 92.9637 47.4764C87.7112 48.6625 84.3225 51.9947 83.0799 57.3037C82.0633 61.709 84.2095 66.1708 88.276 67.9781C91.3823 69.3336 94.4886 69.1642 97.482 67.6393C101.944 65.3237 104.372 61.709 104.655 56.8519Z" fill="#5DC9E1"/>
</svg>
