<svg width="116" height="116" viewBox="0 0 116 116" fill="none" xmlns="http://www.w3.org/2000/svg">
<g clip-path="url(#clip0_140_457)">
<path d="M10 10H106V106H10V10Z" fill="#F7DF1E"/>
<path d="M35.242 90.2245L42.5882 85.7785C44.0057 88.2914 45.295 90.4176 48.3876 90.4176C51.352 90.4176 53.2213 89.2581 53.2213 84.7476V54.0734H62.2427V84.8751C62.2427 94.219 56.7655 98.4722 48.7742 98.4722C41.5573 98.4722 37.3682 94.7346 35.2416 90.2237M67.1428 89.2578L74.4883 85.0049C76.4222 88.1627 78.9355 90.4825 83.3815 90.4825C87.1198 90.4825 89.5033 88.6135 89.5033 86.0357C89.5033 82.9427 87.0546 81.847 82.9303 80.0432L80.6754 79.0757C74.1666 76.3056 69.8492 72.8256 69.8492 65.4794C69.8492 58.7129 75.0043 53.5574 83.0597 53.5574C88.7949 53.5574 92.9192 55.5554 95.8832 60.775L88.8587 65.2862C87.3118 62.5154 85.6371 61.42 83.0593 61.42C80.4171 61.42 78.7416 63.0955 78.7416 65.2862C78.7416 67.9926 80.4171 69.0887 84.2833 70.7642L86.5386 71.7306C94.2073 75.0175 98.5247 78.3681 98.5247 85.9071C98.5247 94.0274 92.1452 98.4734 83.5746 98.4734C75.1974 98.4734 69.7843 94.4781 67.1425 89.2581" fill="black"/>
</g>
<defs>
<clipPath id="clip0_140_457">
<rect width="96" height="96" fill="white" transform="translate(10 10)"/>
</clipPath>
</defs>
</svg>
