<svg width="116" height="116" viewBox="0 0 116 116" fill="none" xmlns="http://www.w3.org/2000/svg">
<g clip-path="url(#clip0_176_79)">
<path d="M58.1802 30.5972C82.0621 12.057 69.8052 0 69.8052 0C71.6293 19.1668 50.0722 23.6924 44.2936 36.8633C40.3506 45.8508 46.9938 53.72 58.1722 63.6383C57.1841 61.4416 55.6597 59.3072 54.1169 57.1463C48.8538 49.776 43.3714 42.0978 58.1802 30.5972Z" fill="#E76F00"/>
<path d="M83.1467 84.9904C105.278 73.6811 95.0458 62.8133 87.9034 64.2775C86.1525 64.6356 85.3721 64.9463 85.3721 64.9463C85.3721 64.9463 86.022 63.9451 87.2632 63.5115C101.393 58.6268 112.26 77.9191 82.7019 85.5602C82.7019 85.5602 83.0445 85.2593 83.1467 84.9904Z" fill="#5382A1"/>
<path d="M37.0946 70.6763C23.2476 68.858 44.6872 63.8504 44.6872 63.8504C44.6872 63.8504 36.3613 63.2983 26.1215 68.1656C14.0134 73.9254 56.0719 76.5448 77.8433 70.9141C80.1067 69.3941 83.2351 68.0768 83.2351 68.0768C83.2351 68.0768 74.3259 69.6414 65.4534 70.3776C54.5969 71.2719 42.9414 71.4462 37.0946 70.6763Z" fill="#5382A1"/>
<path d="M42.3632 81.4748C34.6414 80.6896 39.6974 77.0092 39.6974 77.0092C19.7163 83.5305 50.8145 90.9259 78.7346 82.8972C75.7668 81.8685 73.8797 79.9867 73.8797 79.9867C60.2341 82.5706 52.3486 82.488 42.3632 81.4748Z" fill="#5382A1"/>
<path d="M45.7275 93.1593C38.0117 92.2871 42.5194 89.7094 42.5194 89.7094C24.3815 94.693 53.5517 104.989 76.6444 95.2567C72.8621 93.8103 70.1539 92.1406 70.1539 92.1406C59.8527 94.0575 55.0749 94.208 45.7275 93.1593Z" fill="#5382A1"/>
<path d="M94.0278 99.1032C94.0278 99.1032 97.3635 101.806 90.3538 103.897C77.0244 107.868 34.8759 109.067 23.1672 104.055C18.9582 102.255 26.8512 99.7561 29.334 99.2315C31.9234 98.6795 33.4031 98.7824 33.4031 98.7824C28.7223 95.5398 3.14827 105.149 20.4128 107.901C67.4957 115.41 106.24 104.52 94.0278 99.1032Z" fill="#5382A1"/>
<path d="M101.5 105.009C100.728 114.893 68.1054 116.973 46.8618 115.635C33.0032 114.761 30.2257 112.577 30.1851 112.545C43.4489 114.696 65.8115 115.087 83.9434 111.732C100.015 108.756 101.5 105.009 101.5 105.009Z" fill="#5382A1"/>
</g>
<defs>
<clipPath id="clip0_176_79">
<rect width="116" height="116" fill="white"/>
</clipPath>
</defs>
</svg>
