<svg width="116" height="116" viewBox="0 0 116 116" fill="none" xmlns="http://www.w3.org/2000/svg">
<path fill-rule="evenodd" clip-rule="evenodd" d="M67.0154 7.25C66.3188 7.25973 65.6283 7.38215 64.9709 7.6125C70.8252 11.4622 63.9196 17.0375 67.1459 21.75C66.9235 20.1649 67.1757 18.5495 67.8705 17.1076C68.5654 15.6657 69.6717 14.4619 71.05 13.6481C72.0831 12.789 72.7465 12.4809 72.5254 11.0599C72.1665 8.73263 69.0635 7.25 67.0154 7.25ZM75.3529 8.75075C74.5445 12.8216 73.5404 12.9703 70.557 15.5911C69.3933 16.5085 68.5722 17.7907 68.2257 19.2313C67.8792 20.672 68.0274 22.1873 68.6466 23.5335C56.3216 18.7485 40.5239 15.8558 28.942 24.1353C24.7769 27.1114 22.2357 31.3853 17.0991 33.1289C13.7786 34.2671 10.5161 33.93 8.43536 37.2215C7.67437 38.1719 7.27684 39.3624 7.31404 40.5794C7.35124 41.7964 7.82074 42.9603 8.63836 43.8625C9.25823 44.4969 10.4509 44.9029 10.9439 45.5481C11.2302 45.9106 11.223 46.2731 11.4949 46.7552C11.9753 47.8788 12.6697 48.8983 13.5394 49.7567C14.0722 50.1954 15.9029 50.6231 16.2146 51.0907C16.6061 51.6744 15.5911 53.9908 16.443 54.3533C17.0157 54.6179 18.6941 51.6562 18.8572 51.3953C18.5237 53.7261 18.0851 57.8623 20.706 54.4185C21.9494 52.7836 22.0255 52.2435 24.1171 51.881C25.4556 51.6485 26.8085 51.508 28.1662 51.4605C35.9227 51.1892 43.4877 53.9033 49.3025 59.0437C55.1173 64.1841 58.7389 71.3591 59.421 79.0903C59.0295 77.2778 56.6624 74.3778 54.4584 75.0665C53.5195 75.3565 53.1715 76.9769 52.5552 77.9157C51.7761 79.1062 50.816 80.1678 49.7096 81.0622C49.8969 79.3049 49.8088 77.529 49.4486 75.7988C48.7889 78.5102 47.4657 83.0089 44.1344 82.2803C43.0246 82.1108 41.9848 81.6329 41.1336 80.9009C40.2824 80.1689 39.6541 79.2124 39.3204 78.1405C38.889 75.3855 41.7999 72.1556 37.12 71.9272C27.7312 71.4669 29.9026 85.2745 35.4452 88.8741C34.1714 89.0151 32.9288 89.3615 31.7659 89.9C35.2867 91.9447 39.2538 93.0981 43.3221 93.2599C47.3904 93.4216 51.4366 92.5867 55.1086 90.8279C58.7806 89.069 61.9672 86.4396 64.3911 83.1682C66.815 79.8969 68.4028 76.0828 69.0163 72.0578C69.8231 75.7439 69.8045 79.5628 68.962 83.2409C68.5115 85.1955 67.8377 87.0917 66.9537 88.8923C65.7555 91.3242 64.1632 93.5413 62.2412 95.4535C61.103 96.5809 59.015 97.7155 58.2972 98.8646C62.6906 98.2821 66.9837 97.1015 71.0572 95.3556C66.8405 101.131 61.2247 105.741 54.7375 108.75C61.6931 108.258 68.4168 106.042 74.3022 102.303C80.1877 98.5633 85.0498 93.4176 88.45 87.3299C87.3663 93.4183 84.9595 99.1948 81.3994 104.251C86.1877 101.046 90.2616 96.8846 93.3651 92.0294C96.4686 87.1742 98.5347 81.7298 99.4337 76.038C100.326 80.2045 100.582 84.4824 100.191 88.7255C104.125 83.2599 106.782 76.9815 107.967 70.3527C109.152 63.7239 108.835 56.9137 107.039 50.4237C105.665 45.3786 103.605 40.5461 100.916 36.0615C99.8781 34.3141 98.7417 32.627 97.5125 31.0082C97.0303 30.3811 94.453 28.0865 94.453 27.3832C94.4312 27.4533 94.4131 27.4533 94.3986 27.3832C94.3986 39.1572 81.7111 46.7154 71.0862 43.5616C75.1263 43.2483 78.9448 41.5902 81.9319 38.8521C84.9191 36.114 86.9025 32.4538 87.5655 28.4562C88.1525 24.2623 87.2525 19.9952 85.0216 16.3956C82.7908 12.7961 79.3699 10.0913 75.3529 8.75075Z" fill="#EA2845"/>
</svg>
