<svg width="96" height="93" viewBox="0 0 96 93" fill="none" xmlns="http://www.w3.org/2000/svg">
<path d="M47.5237 8.00062C44.2249 8.01509 41.0747 8.28058 38.3028 8.74344C30.1372 10.1048 28.6547 12.9542 28.6547 18.209V25.149H47.951V27.4623H28.6547H21.413C15.8049 27.4623 10.8944 30.6432 9.35841 36.6944C7.5867 43.6305 7.50812 47.9587 9.35841 55.201C10.7301 60.592 14.0057 64.4331 19.6138 64.4331H26.2483V56.1136C26.2483 50.1033 31.7589 44.8017 38.3028 44.8017H57.5766C62.9417 44.8017 67.2247 40.633 67.2247 35.5484V18.209C67.2247 13.2741 62.8131 9.56705 57.5766 8.74344C54.2618 8.22272 50.8224 7.98616 47.5237 8.00062ZM37.0884 13.5823C39.0815 13.5823 40.7092 15.1434 40.7092 17.0629C40.7092 18.9756 39.0815 20.5223 37.0884 20.5223C35.0881 20.5223 33.4675 18.9756 33.4675 17.0629C33.4675 15.1434 35.0881 13.5823 37.0884 13.5823Z" fill="url(#paint0_linear_140_436)"/>
<path d="M69.6312 27.4623V35.5483C69.6312 41.8173 63.9991 47.0937 57.5766 47.0938H38.3029C33.0234 47.0938 28.6547 51.3577 28.6547 56.3471V73.6864C28.6547 78.6213 33.2021 81.524 38.3029 82.9398C44.411 84.6346 50.2683 84.9409 57.5766 82.9398C62.4346 81.6124 67.2248 78.9412 67.2248 73.6864V66.7464H47.951V64.4331H67.2248H76.8729C82.481 64.4331 84.5707 60.7417 86.5211 55.201C88.5357 49.497 88.4499 44.0116 86.5211 36.6944C85.1351 31.426 82.4881 27.4623 76.8729 27.4623H69.6312ZM58.7911 71.3731C60.7914 71.3731 62.412 72.9198 62.412 74.8325C62.412 76.752 60.7914 78.3131 58.7911 78.3131C56.7979 78.3131 55.1702 76.752 55.1702 74.8325C55.1702 72.9198 56.7979 71.3731 58.7911 71.3731Z" fill="url(#paint1_linear_140_436)"/>
<defs>
<linearGradient id="paint0_linear_140_436" x1="8" y1="8" x2="50.3074" y2="46.2033" gradientUnits="userSpaceOnUse">
<stop stop-color="#5A9FD4"/>
<stop offset="1" stop-color="#306998"/>
</linearGradient>
<linearGradient id="paint1_linear_140_436" x1="58.3274" y1="74.249" x2="43.5665" y2="52.3301" gradientUnits="userSpaceOnUse">
<stop stop-color="#FFD43B"/>
<stop offset="1" stop-color="#FFE873"/>
</linearGradient>
</defs>
</svg>
