<svg width="116" height="116" viewBox="0 0 116 116" fill="none" xmlns="http://www.w3.org/2000/svg">
<g clip-path="url(#clip0_176_108)">
<path d="M58 66.5565C62.7256 66.5565 66.5565 62.7256 66.5565 58C66.5565 53.2744 62.7256 49.4435 58 49.4435C53.2744 49.4435 49.4435 53.2744 49.4435 58C49.4435 62.7256 53.2744 66.5565 58 66.5565Z" fill="#61DAFB"/>
<path d="M58 75.5305C83.357 75.5305 103.913 67.6818 103.913 58C103.913 48.3182 83.357 40.4696 58 40.4696C32.6429 40.4696 12.0869 48.3182 12.0869 58C12.0869 67.6818 32.6429 75.5305 58 75.5305Z" stroke="#61DAFB"/>
<path d="M42.8181 66.7652C55.4967 88.7251 72.5718 102.603 80.9565 97.7618C89.3411 92.9209 85.8603 71.1946 73.1817 49.2348C60.5032 27.2749 43.4281 13.3972 35.0434 18.2381C26.6587 23.079 30.1396 44.8053 42.8181 66.7652Z" stroke="#61DAFB"/>
<path d="M42.8182 49.2347C30.1396 71.1946 26.6588 92.9209 35.0435 97.7618C43.4281 102.603 60.5032 88.725 73.1818 66.7652C85.8603 44.8053 89.3412 23.079 80.9565 18.2381C72.5718 13.3972 55.4967 27.2749 42.8182 49.2347Z" stroke="#61DAFB"/>
</g>
<defs>
<clipPath id="clip0_176_108">
<rect width="96" height="85.4128" fill="white" transform="translate(10 15.2936)"/>
</clipPath>
</defs>
</svg>
