<svg width="116" height="116" viewBox="0 0 116 116" fill="none" xmlns="http://www.w3.org/2000/svg">
<path d="M95.9538 20.6626C91.201 14.1411 84.1938 9.61918 76.2935 7.97521C68.3932 6.33123 60.1638 7.68261 53.2041 11.7668L28.855 26.8251C25.5913 28.7919 22.7799 31.4262 20.6053 34.5554C18.4307 37.6846 16.9419 41.238 16.2364 44.9827C15.0788 51.2462 16.1023 57.7173 19.1364 63.3179C17.0571 66.3755 15.6362 69.832 14.964 73.4679C14.272 77.2637 14.3654 81.161 15.2382 84.9193C16.1111 88.6776 17.745 92.2171 20.039 95.3194C24.7919 101.842 31.7986 106.365 39.699 108.011C47.5994 109.658 55.8297 108.31 62.7923 104.23L87.145 89.175C90.4077 87.207 93.2182 84.5723 95.3927 81.4433C97.5672 78.3144 99.0566 74.7616 99.7636 71.0174C100.929 64.7492 99.9048 58.2711 96.8636 52.6677C98.9452 49.6109 100.367 46.1542 101.04 42.5177C101.731 38.7206 101.637 34.822 100.762 31.0629C99.8875 27.3038 98.2509 23.764 95.9538 20.6626Z" fill="#FF3E00"/>
<path d="M50.8297 96.5699C47.0225 97.5464 43.0097 97.3569 39.3114 96.0261C35.6131 94.6953 32.3997 92.2845 30.0875 89.1061C28.703 87.2428 27.7158 85.1151 27.187 82.8547C26.6582 80.5944 26.5992 78.2495 27.0135 75.9654C27.1513 75.2153 27.344 74.4762 27.5899 73.7542L28.0502 72.3948L29.2972 73.2576C32.1919 75.3192 35.4122 76.8803 38.8237 77.8758L39.7119 78.1404L39.6212 78.9996C39.5169 80.2492 39.8656 81.4947 40.6036 82.5086C41.2974 83.4898 42.2739 84.2361 43.4028 84.648C44.5317 85.06 45.7593 85.1179 46.922 84.8141C47.4473 84.6775 47.9494 84.4638 48.4119 84.1797L72.6994 69.1214C73.2907 68.7629 73.8004 68.2844 74.1957 67.7169C74.5909 67.1494 74.8628 66.5053 74.994 65.8263C75.1246 65.1417 75.1135 64.4375 74.9614 63.7573C74.8093 63.077 74.5193 62.4352 74.1095 61.8714C73.4121 60.9126 72.4429 60.1851 71.3274 59.7831C70.212 59.3811 69.0015 59.3231 67.8527 59.6167C67.3247 59.7535 66.8201 59.9686 66.3556 60.2547L57.0321 65.9967C55.4996 66.945 53.8327 67.6563 52.0876 68.1064C48.2774 69.0854 44.2609 68.8969 40.559 67.5653C36.8572 66.2338 33.6409 63.8207 31.3272 60.6389C29.9519 58.7696 28.9749 56.6379 28.4568 54.3757C27.9386 52.1135 27.8903 49.769 28.3149 47.4874C28.7427 45.2399 29.6379 43.1072 30.9424 41.2276C32.2469 39.348 33.9316 37.7633 35.8875 36.5762L60.204 21.5179C61.7366 20.5708 63.4036 19.8607 65.1485 19.4118C68.9589 18.4307 72.9762 18.6178 76.679 19.9487C80.3817 21.2797 83.5988 23.6932 85.9125 26.8757C87.2968 28.7391 88.2839 30.8668 88.8127 33.1271C89.3414 35.3874 89.4006 37.7322 88.9865 40.0163C88.8491 40.7666 88.6564 41.5057 88.4101 42.2276L87.9497 43.5869L86.7027 42.7278C83.8097 40.6634 80.589 39.102 77.1762 38.1096L76.2881 37.8413L76.3787 36.9822C76.483 35.732 76.133 34.4861 75.3927 33.4732C74.6972 32.5131 73.7288 31.7845 72.6136 31.3824C71.4983 30.9803 70.2878 30.9231 69.1396 31.2184C68.6136 31.3546 68.1113 31.5698 67.6497 31.8564L43.2825 46.8639C42.6909 47.2206 42.1814 47.6981 41.7872 48.2654C41.393 48.8326 41.1231 49.4767 40.9951 50.1554C40.8611 50.8406 40.8705 51.546 41.0228 52.2273C41.175 52.9086 41.4667 53.551 41.8796 54.1139C42.5775 55.0722 43.5469 55.799 44.6623 56.2003C45.7778 56.6016 46.9879 56.659 48.1364 56.3651C48.6637 56.2279 49.1681 56.0142 49.6335 55.7307L58.9207 49.9851C60.4525 49.0363 62.1198 48.3261 63.8652 47.8789C67.6757 46.8998 71.6924 47.0879 75.3947 48.4187C79.097 49.7496 82.3142 52.1618 84.6292 55.3428C86.0101 57.2078 86.9937 59.3362 87.5193 61.5964C88.0449 63.8566 88.1013 66.2006 87.6851 68.4834C87.2602 70.7335 86.3663 72.8689 85.0616 74.7507C83.7569 76.6325 82.0706 78.2185 80.1125 79.4056L55.7996 94.4638C54.2678 95.4126 52.6006 96.1227 50.8551 96.5699" fill="white"/>
</svg>
