<svg width="116" height="116" viewBox="0 0 116 116" fill="none" xmlns="http://www.w3.org/2000/svg">
<g clip-path="url(#clip0_140_485)">
<path d="M103.994 7.25H12.006C9.37933 7.25 7.25 9.37933 7.25 12.006V103.994C7.25 106.621 9.37933 108.75 12.006 108.75H103.994C106.621 108.75 108.75 106.621 108.75 103.994V12.006C108.75 9.37933 106.621 7.25 103.994 7.25Z" fill="#3178C6"/>
<path fill-rule="evenodd" clip-rule="evenodd" d="M66.1381 86.1264V97.2479C68.1589 98.2453 70.3124 98.9472 72.5326 99.3323C75.0984 99.806 77.7028 100.039 80.3119 100.028C82.8548 100.04 85.3918 99.784 87.8809 99.2634C90.1157 98.8118 92.2478 97.9516 94.1703 96.7259C95.955 95.5739 97.426 93.997 98.4514 92.1367C100.288 88.2845 100.53 83.8632 99.1256 79.8334C98.5329 78.3265 97.6498 76.9507 96.5265 75.7843C95.3208 74.544 93.9511 73.4744 92.4556 72.6052C90.7339 71.5968 88.945 70.7078 87.1015 69.9444C85.6515 69.3427 84.3465 68.7578 83.1865 68.1899C82.1562 67.6966 81.1702 67.1157 80.2394 66.4536C79.5104 65.9425 78.8772 65.3068 78.3689 64.5758C77.9298 63.9121 77.7011 63.1313 77.7128 62.3355C77.7031 61.6032 77.9072 60.8839 78.3 60.2657C78.7267 59.6187 79.2959 59.0781 79.9639 58.6852C80.7805 58.2044 81.6691 57.858 82.5956 57.6593C83.7332 57.4066 84.8959 57.285 86.0611 57.2968C87.0411 57.3002 88.0197 57.3704 88.9902 57.5071C90.0381 57.6487 91.0749 57.8631 92.0932 58.1487C93.1288 58.4357 94.1418 58.7992 95.1236 59.2362C96.0764 59.6609 96.9878 60.173 97.846 60.7659V50.3876C96.0593 49.7116 94.2064 49.2256 92.3179 48.9376C90.0374 48.6057 87.7348 48.4494 85.4304 48.4699C82.9114 48.4564 80.3998 48.7423 77.9484 49.3218C75.7326 49.8281 73.6257 50.7281 71.7279 51.9789C69.965 53.1533 68.5093 54.7333 67.483 56.5863C66.3954 58.6441 65.8573 60.9478 65.9206 63.2744C65.8403 66.3513 66.8538 69.3569 68.7808 71.7569C71.145 74.418 74.1261 76.4581 77.4626 77.6983C78.9851 78.3266 80.4049 78.9417 81.722 79.5434C82.9104 80.0722 84.0526 80.6991 85.1368 81.4175C86.0113 81.9864 86.7793 82.7042 87.406 83.5382C87.9571 84.2947 88.2495 85.2087 88.2398 86.1446C88.2448 86.8459 88.0647 87.5361 87.7178 88.1456C87.3323 88.8005 86.7905 89.3497 86.1409 89.7442C85.328 90.2397 84.4388 90.5974 83.5092 90.8027C82.2982 91.0734 81.0596 91.2012 79.8189 91.1833C77.384 91.1788 74.9686 90.7495 72.6813 89.9146C70.2917 89.0523 68.0758 87.7693 66.1381 86.1264ZM47.4549 58.4387H61.9549V49.2783H21.5253V58.4387H35.96V99.2344H47.4549V58.4387Z" fill="white"/>
</g>
<defs>
<clipPath id="clip0_140_485">
<rect width="116" height="116" fill="white"/>
</clipPath>
</defs>
</svg>
