<svg width="116" height="116" viewBox="0 0 116 116" fill="none" xmlns="http://www.w3.org/2000/svg">
<g clip-path="url(#clip0_176_180)">
<path d="M113.069 17.6898L61.0112 110.779C59.9364 112.7 57.175 112.712 56.0841 110.799L2.99389 17.6988C1.80536 15.6146 3.58761 13.09 5.94946 13.5121L58.0631 22.8272C58.3956 22.8866 58.7359 22.886 59.0684 22.8254L110.092 13.5255C112.446 13.0965 114.237 15.6015 113.069 17.6898Z" fill="url(#paint0_linear_176_180)"/>
<path d="M82.8877 1.29416L44.3632 8.84288C43.7301 8.96694 43.2612 9.50354 43.2231 10.1475L40.8533 50.1714C40.7975 51.1141 41.6633 51.8457 42.5834 51.6335L53.3091 49.1582C54.3127 48.9268 55.2194 49.8106 55.0132 50.8198L51.8266 66.4241C51.6121 67.4743 52.5981 68.3723 53.6237 68.0608L60.2485 66.0481C61.2755 65.7363 62.2623 66.6369 62.045 67.6879L56.9809 92.1987C56.6641 93.7319 58.7034 94.568 59.5539 93.2535L60.122 92.3756L91.5139 29.7276C92.0395 28.6787 91.133 27.4826 89.981 27.7049L78.9406 29.8357C77.9031 30.0357 77.0204 29.0695 77.3132 28.0545L84.5191 3.07448C84.8122 2.05771 83.9263 1.09068 82.8877 1.29416Z" fill="url(#paint1_linear_176_180)"/>
</g>
<defs>
<linearGradient id="paint0_linear_176_180" x1="1.69766" y1="10.1853" x2="66.4879" y2="98.1756" gradientUnits="userSpaceOnUse">
<stop stop-color="#41D1FF"/>
<stop offset="1" stop-color="#BD34FE"/>
</linearGradient>
<linearGradient id="paint1_linear_176_180" x1="55.072" y1="3.34362" x2="66.7923" y2="83.7432" gradientUnits="userSpaceOnUse">
<stop stop-color="#FFEA83"/>
<stop offset="0.0833333" stop-color="#FFDD35"/>
<stop offset="1" stop-color="#FFA800"/>
</linearGradient>
<clipPath id="clip0_176_180">
<rect width="116" height="116" fill="white"/>
</clipPath>
</defs>
</svg>
